<?xml version="1.0" encoding="utf-8"?>
<!-- Generator: Adobe Illustrator 25.4.2, SVG Export Plug-In . SVG Version: 6.00 Build 0)  -->
<svg version="1.1" id="Layer_1" xmlns="http://www.w3.org/2000/svg" xmlns:xlink="http://www.w3.org/1999/xlink" x="0px" y="0px"
	 viewBox="0 0 720 768" style="enable-background:new 0 0 720 768;" xml:space="preserve">
<style type="text/css">
	.st0{fill:#5C7F4B;stroke:#000000;stroke-width:2;stroke-miterlimit:10;}
</style>
<path class="st0" d="M359.75,589.44c0,0,7.49-52.91,19.87-75.17c12.38-22.26-3.25-53.93-9.93-58.1S363,452,363,452s-12-4-6,8
	s15,11,7,31s-11,44-20,56s-19,42-17,49"/>
<path class="st0" d="M369.68,456.17c0,0-1.68-25.17,29.32-21.17c0,0,4,4,17-3c0,0-25.95,24.33-35.98,24.17
	C370,456,369.68,456.17,369.68,456.17z"/>
<path class="st0" d="M364,491c0,0-2-10-14-14s-15,2-15,2s-5,6-10,3s-4-4-4-4s0.2,11,4.6,13C330,493,348,510,364,491z"/>
</svg>
