<?xml version="1.0" encoding="utf-8"?>
<!-- Generator: Adobe Illustrator 25.4.2, SVG Export Plug-In . SVG Version: 6.00 Build 0)  -->
<svg version="1.1" id="Layer_1" xmlns="http://www.w3.org/2000/svg" xmlns:xlink="http://www.w3.org/1999/xlink" x="0px" y="0px"
	 viewBox="0 0 720 768" style="enable-background:new 0 0 720 768;" xml:space="preserve">
<style type="text/css">
	.st0{fill:#5C7F4B;stroke:#000000;stroke-width:2;stroke-miterlimit:10;}
</style>
<path class="st0" d="M359.75,589.44c0,0,7.49-52.91,19.87-75.17c12.38-22.26-3.25-53.93-9.93-58.1S363,452,363,452s-32-36-6,8
	c6.83,11.55,15,11,7,31s-11,44-20,56s-19,42-17,49"/>
<path class="st0" d="M369.68,456.17c0,0-1.68-25.17,29.32-21.17c0,0,11,1,24-6c0,0-26.98,35.17-37,35S369.68,456.17,369.68,456.17z"
	/>
<path class="st0" d="M373,395c0,0,2.96-1,4.98-1s-0.98,4-0.98,4l-4,6.59l-2.26,1.41"/>
<path class="st0" d="M364,491c0,0-2-10-14-14s-15,2-15,2s-5,6-10,3s-7-10-7-10c-0.81,0.86,1.86,18.05,9,24C333,501,348,510,364,491z
	"/>
<path class="st0" d="M357,460c0,0-22-24-6-39s10-2,10-2s-4.66,15.26-3.83,19.13s-0.17,7.34,2.83,10.6"/>
<path class="st0" d="M351,421c0,0,4-7-1-11s-15-9-12-16c0,0-6,5-4,14S339,422,351,421z"/>
<path class="st0" d="M354.63,417.75c0,0,7.83-9.63,9.6-10.19C366,407,373,405,370,409s-6,5-7,8s-3,5-4,8s-1.43,7.82-1.71,9.41"/>
<path class="st0" d="M368,406c0,0-3.53-7,0.73-12s2.01-1.39,2.01-1.39s0.88,1.7,1.3,3.95c0.25,1.36,0.34,2.92-0.04,4.43
	c-1,4-2.56,5-2.56,5"/>
</svg>
