<?xml version="1.0" encoding="utf-8"?>
<!-- Generator: Adobe Illustrator 24.3.2, SVG Export Plug-In . SVG Version: 6.00 Build 0)  -->
<svg version="1.1" id="Layer_1" xmlns="http://www.w3.org/2000/svg" xmlns:xlink="http://www.w3.org/1999/xlink" x="0px" y="0px"
	 viewBox="0 0 720 768" style="enable-background:new 0 0 720 768;" xml:space="preserve">
<style type="text/css">
	.st0{fill:#FFFFFF;stroke:#000000;stroke-width:2;stroke-miterlimit:10;}
</style>
<g>
	<path class="st0" d="M430.4,272.4l-14.1-7.1L381.6,276l-110.5-56.4l39.4-43.9L242.5,80l-21.1,9.6c0,0,2.7-31.5,2-41
		C222.1,30,203.6,25,203.6,25c-16.5-4.4-59.1-0.7-65.8,38.7c-6.7,39.5-22,74-22,74l-25.2,11.5l107.6,151.6l43.9-48.8l132.8,36.8
		l8.7,29l14.6,6.6L430.4,272.4z M161.8,49.2c9.3-10.7,36.3-15.1,47.4,2.5c11,17.4-4,45.3-4,45.3l-58,26.4
		C147.1,123.5,147.7,65.6,161.8,49.2z"/>
</g>
<line class="st0" x1="419" y1="339" x2="425" y2="370"/>
<line class="st0" x1="430.4" y1="403" x2="430.4" y2="440"/>
<line class="st0" x1="448" y1="354.5" x2="456" y2="403"/>
<line class="st0" x1="452" y1="324.5" x2="471" y2="354.5"/>
<line class="st0" x1="456" y1="301" x2="488" y2="318"/>
<line class="st0" x1="488" y1="339" x2="508" y2="370"/>
<line class="st0" x1="488" y1="384" x2="498" y2="421.5"/>
<line class="st0" x1="523" y1="354.5" x2="543" y2="384"/>
<line class="st0" x1="461.5" y1="431" x2="471" y2="473"/>
<line class="st0" x1="533" y1="410" x2="548" y2="440"/>
<line class="st0" x1="514" y1="459" x2="523" y2="494"/>
<line class="st0" x1="452" y1="476.5" x2="456" y2="508"/>
<line class="st0" x1="566" y1="431" x2="577" y2="467"/>
</svg>
