<?xml version="1.0" encoding="utf-8"?>
<!-- Generator: Adobe Illustrator 25.4.2, SVG Export Plug-In . SVG Version: 6.00 Build 0)  -->
<svg version="1.1" id="Layer_1" xmlns="http://www.w3.org/2000/svg" xmlns:xlink="http://www.w3.org/1999/xlink" x="0px" y="0px"
	 viewBox="0 0 720 768" style="enable-background:new 0 0 720 768;" xml:space="preserve">
<style type="text/css">
	.st0{fill:#FFFFFF;stroke:#000000;stroke-width:2;stroke-miterlimit:10;}
</style>
<path class="st0" d="M517.52,319.32l-13.94,7.38l-11.43,34.45l-109.92,57.53l-12.95-57.53H251.87L247.48,384
	c0,0-24.08-20.35-32.34-25.39c-15.95-9.73-30.67,2.53-30.67,2.53c-13.05,10.87-34.79,47.83-6.52,76.1
	c28.26,28.26,47.62,60.84,47.62,60.84l0.97-5.03l-6.19,32.24h185.9l-14.42-64.05l0,0l106.84-86.98l28.7,9.74l13.94-8.1
	L517.52,319.32z M180.12,409.2c-3.32-13.78,8.69-38.27,29.35-37.18c20.65,1.09,34.64,29.53,34.64,29.53l-12.03,62.62
	C232.08,464.17,185.18,430.21,180.12,409.2z"/>
</svg>
