<?xml version="1.0" encoding="utf-8"?>
<!-- Generator: Adobe Illustrator 26.0.1, SVG Export Plug-In . SVG Version: 6.00 Build 0)  -->
<svg version="1.1" id="Layer_1" xmlns="http://www.w3.org/2000/svg" xmlns:xlink="http://www.w3.org/1999/xlink" x="0px" y="0px"
	 viewBox="0 0 172.8 432" style="enable-background:new 0 0 172.8 432;" xml:space="preserve">
<style type="text/css">
	.st0{fill:#5C7F4B;stroke:#000000;stroke-width:2;stroke-miterlimit:10;}
</style>
<path class="st0" d="M86.2,421.4c0,0,7.5-52.9,19.9-75.2s-3.2-53.9-9.9-58.1s-6.7-4.2-6.7-4.2s-32-36-6,8c6.8,11.5,15,11,7,31
	s-11,44-20,56s-19,42-17,49"/>
<path class="st0" d="M538.7-65.4c0,0-0.4-63.4,39.7-90c0,0-19.5,7.9-12.4,45.4C573.1-72.4,538.7-65.4,538.7-65.4z"/>
<path class="st0" d="M533.7,122.9c0,0,7.5-52.9,19.9-75.2s-3.2-53.9-9.9-58.1c-6.7-4.2-6.7-4.2-6.7-4.2s-12-4-6,8s15,11,7,31
	s-11,44-20,56c-9,12-19,42-17,49"/>
<path class="st0" d="M96.1,288.2c0,0-1.7-25.2,29.3-21.2c0,0,11,1,24-6c0,0-27,35.2-37,35S96.1,288.2,96.1,288.2z"/>
<path class="st0" d="M90.4,323c0,0-2-10-14-14s-15,2-15,2s-5,6-10,3s-7-10-7-10c-0.8,0.9,1.9,18,9,24C59.4,333,74.4,342,90.4,323z"
	/>
<path class="st0" d="M83.4,292c0,0-22-24-6-39s10-2,10-2s-4.7,15.3-3.8,19.1s-0.2,7.3,2.8,10.6"/>
<path class="st0" d="M77.4,253c0,0,4-7-1-11s-15-9-12-16c0,0-6,5-4,14S65.4,254,77.4,253z"/>
</svg>
