<?xml version="1.0" encoding="utf-8"?>
<!-- Generator: Adobe Illustrator 26.0.1, SVG Export Plug-In . SVG Version: 6.00 Build 0)  -->
<svg version="1.1" id="Layer_1" xmlns="http://www.w3.org/2000/svg" xmlns:xlink="http://www.w3.org/1999/xlink" x="0px" y="0px"
	 viewBox="0 0 172.8 432" style="enable-background:new 0 0 172.8 432;" xml:space="preserve">
<style type="text/css">
	.st0{fill:#B281B5;stroke:#000000;stroke-width:2;stroke-miterlimit:10;}
	.st1{fill:#5C7F4B;stroke:#000000;stroke-width:2;stroke-miterlimit:10;}
</style>
<path class="st0" d="M99.8,215.9c0,0,2.6-3.9,3.6-1.9s4,5,3,5s-4,3-4,3l-1.3,0.9"/>
<path class="st0" d="M105.4,229c0,0,6.6,4,8.3-2s-1.3-12-1.3-12s-0.4-1.3-3.7-1.6c-3.3-0.4-5,3.9-6.2,4.8s-1.4,2-1.4,2
	s-0.9,2.5-1.3,4.2c-0.4,1.6-0.4,2.2-0.4,2.2c1-1.4,0-8.6,0-8.6s-1-8-6-3S93,227,93,227"/>
<path class="st1" d="M86.2,421.4c0,0,7.5-52.9,19.9-75.2s-3.2-53.9-9.9-58.1s-6.7-4.2-6.7-4.2s-32-36-6,8c6.8,11.5,15,11,7,31
	s-11,44-20,56s-19,42-17,49"/>
<path class="st1" d="M96.1,288.2c0,0-1.7-25.2,29.3-21.2c0,0,11,1,24-6c0,0-27,35.2-37,35S96.1,288.2,96.1,288.2z"/>
<path class="st1" d="M99.4,227c0,0,3-1,5-1s-1,4-1,4l-4,6.6l-2.3,1.4"/>
<path class="st1" d="M90.4,323c0,0-2-10-14-14s-15,2-15,2s-5,6-10,3s-7-10-7-10c-0.8,0.9,1.9,18,9,24C59.4,333,74.4,342,90.4,323z"
	/>
<path class="st1" d="M83.4,292c0,0-22-24-6-39s10-2,10-2s-4.7,15.3-3.8,19.1s-0.2,7.3,2.8,10.6"/>
<path class="st1" d="M77.4,253c0,0,4-7-1-11s-15-9-12-16c0,0-6,5-4,14S65.4,254,77.4,253z"/>
<path class="st1" d="M81,249.8c0,0,7.8-9.6,9.6-10.2c1.8-0.6,8.8-2.6,5.8,1.4s-6,5-7,8s-3,5-4,8s-1.4,7.8-1.7,9.4"/>
<path class="st1" d="M94.4,238c0,0-3.5-7,0.7-12s2-1.4,2-1.4s0.9,1.7,1.3,4c0.2,1.4,0.3,2.9,0,4.4c-1,4-2.6,5-2.6,5"/>
</svg>
