<?xml version="1.0" encoding="utf-8"?>
<!-- Generator: Adobe Illustrator 24.3.2, SVG Export Plug-In . SVG Version: 6.00 Build 0)  -->
<svg version="1.1" id="Layer_1" xmlns="http://www.w3.org/2000/svg" xmlns:xlink="http://www.w3.org/1999/xlink" x="0px" y="0px"
	 viewBox="0 0 720 768" style="enable-background:new 0 0 720 768;" xml:space="preserve">
<style type="text/css">
	.st0{fill:#FFFFFF;stroke:#000000;stroke-width:2;stroke-miterlimit:10;}
</style>
<g>
	<path class="st0" d="M517.5,319.3l-13.9,7.4l-11.4,34.5l-109.9,57.5l-13-57.5H251.9l-4.4,22.8c0,0-24.1-20.4-32.3-25.4
		c-15.9-9.7-30.7,2.5-30.7,2.5c-13.1,10.9-34.8,47.8-6.5,76.1c28.3,28.3,47.6,60.8,47.6,60.8l-5.2,27.2h185.9l-14.4-64l0,0l106.8-87
		l28.7,9.7l13.9-8.1L517.5,319.3z M180.1,409.2c-3.3-13.8,8.7-38.3,29.4-37.2c20.6,1.1,34.6,29.5,34.6,29.5l-12,62.6
		C232.1,464.2,185.2,430.2,180.1,409.2z"/>
</g>
</svg>
