<?xml version="1.0" encoding="utf-8"?>
<!-- Generator: Adobe Illustrator 26.0.1, SVG Export Plug-In . SVG Version: 6.00 Build 0)  -->
<svg version="1.1" id="Layer_1" xmlns="http://www.w3.org/2000/svg" xmlns:xlink="http://www.w3.org/1999/xlink" x="0px" y="0px"
	 viewBox="0 0 172.8 432" style="enable-background:new 0 0 172.8 432;" xml:space="preserve">
<style type="text/css">
	.st0{fill:#5C7F4B;stroke:#000000;stroke-width:2;stroke-miterlimit:10;}
</style>
<path class="st0" d="M86.2,421.4c0,0,7.5-52.9,19.9-75.2s-3.2-53.9-9.9-58.1s-6.7-4.2-6.7-4.2s-32-36-6,8c6.8,11.5,15,11,7,31
	s-11,44-20,56s-19,42-17,49"/>
<path class="st0" d="M96.1,288.2c0,0-1.7-25.2,29.3-21.2c0,0,11,1,24-6c0,0-27,35.2-37,35S96.1,288.2,96.1,288.2z"/>
<path class="st0" d="M90.4,323c0,0-2-10-14-14s-15,2-15,2s-5,6-10,3s-7-10-7-10c-0.8,0.9,1.9,18,9,24C59.4,333,74.4,342,90.4,323z"
	/>
</svg>
